inDegrees=yes
name=ik_S53_A13_T02
DataType=double
version=3
OpenSimVersion=4.3-2021-08-27-4bc7ad9
endheader
time	pelvis_tilt	pelvis_list	pelvis_rotation	pelvis_tx	pelvis_ty	pelvis_tz	hip_flexion_r	hip_adduction_r	hip_rotation_r	knee_angle_r	knee_angle_r_beta	ankle_angle_r	subtalar_angle_r	mtp_angle_r	hip_flexion_l	hip_adduction_l	hip_rotation_l	knee_angle_l	knee_angle_l_beta	ankle_angle_l	subtalar_angle_l	mtp_angle_l	lumbar_extension	lumbar_bending	lumbar_rotation	arm_flex_r	arm_add_r	arm_rot_r	elbow_flex_r	pro_sup_r	wrist_flex_r	wrist_dev_r	arm_flex_l	arm_add_l	arm_rot_l	elbow_flex_l	pro_sup_l	wrist_flex_l	wrist_dev_l
11.68333333333349	-2.017558876786464	-3.166422291987773	46.00805302398809	0	0.9399999999999999	0	40.9100070513153	-9.972778393592474	-9.855966059644841	48.62179516991303	0.848610413945258	0	0	0	40.9100070513153	-9.972778393592474	-9.855966059644841	48.62179516991303	0.848610413945258	0	0	0	-2.959581500834762	-0.6328957033477103	3.672430237337203	63.8454175278146	-12.00295901084033	-14.01174170019627	56.71251257521188	107.5688276005025	0	0	22.62009942422428	-40.48145161966091	-5.367563888824272	46.82023724328997	100.4735171050882	0	0
11.70000000000016	-1.993070502357144	-3.115735177560489	45.80424789146311	0	0.9399999999999999	0	40.91421354033586	-9.972875304549509	-9.856295850688202	48.6262287977361	0.8486877953485787	0	0	0	40.91421354033586	-9.972875304549509	-9.856295850688202	48.6262287977361	0.8486877953485787	0	0	0	-2.902907831415121	-0.6230414784423928	3.789573156814609	63.75430430779139	-12.70132283718186	-14.79860869188297	59.39119721722342	108.746363591862	0	0	21.2348414043107	-41.14047809672067	-6.212129865655099	46.1108054427284	101.0083791993278	0	0
11.71666666666683	-2.005682392714804	-3.113673713772647	45.42630621801379	0	0.9399999999999999	0	40.91672200178883	-9.97293338553167	-9.856493147919711	48.62886180258944	0.8487337499524905	0	0	0	40.91672200178883	-9.97293338553167	-9.856493147919711	48.62886180258944	0.8487337499524905	0	0	0	-2.895055867420051	-0.643637719595433	4.180411433661273	62.66441883718872	-15.56025585377526	-16.05327657887103	60.54552672519701	106.8473709296274	0	0	19.99176570855978	-41.48219760965016	-7.002496013634897	47.10159996875788	100.7999333395298	0	0
11.7333333333335	-1.987946423572115	-3.084530055071389	45.46892628043741	0	0.9399999999999999	0	40.91813271707639	-9.9729658131874	-9.856603596810087	48.63035115123888	0.8487597439901334	0	0	0	40.91813271707639	-9.9729658131874	-9.856603596810087	48.63035115123888	0.8487597439901334	0	0	0	-2.870431646878796	-0.6148160961165667	3.947891403452648	62.61991925399983	-15.39728887031379	-15.95159724163186	60.56549655003753	106.8537992231596	0	0	19.78857076600108	-41.64840101394898	-7.571267175024501	45.40146527329814	101.5921048760605	0	0
11.75000000000016	-2.012053230912088	-3.014155686888439	45.1213895264566	0	0.9399999999999999	0	40.92252764210982	-9.973066822779574	-9.85694785221278	48.63497838518918	0.8488405044578261	0	0	0	40.92252764210982	-9.973066822779574	-9.85694785221278	48.63497838518918	0.8488405044578261	0	0	0	-2.846095244599286	-0.5322580701998429	3.770563981354482	62.6383967326186	-15.69773263754047	-16.34935438601003	62.96690036891862	107.1488438110443	0	0	17.97600007636042	-41.91659420158079	-9.809706247165199	45.53134542530955	102.2636344486061	0	0
11.76666666666683	-2.033509976193561	-2.990383476276599	44.75615428167502	0	0.9399999999999999	0	40.98595561547155	-9.974052850306402	-9.860847673074066	48.72221240874824	0.850363025388694	0	0	0	40.98595561547155	-9.974052850306402	-9.860847673074066	48.72221240874824	0.850363025388694	0	0	0	-2.847122297726501	-0.5258694089084173	3.962594345733595	62.63931071030916	-16.78454018571402	-18.13977254264659	67.14519516827988	108.8030370298795	0	0	16.57098035276407	-42.24442968228502	-11.78659120632985	44.88497972698148	103.4332693183951	0	0
11.7833333333335	-2.040568165233691	-2.988932476326232	44.64796963654942	0	0.9399999999999999	0	40.99007357129668	-9.97414519458294	-9.861165905434667	48.72655960199947	0.8504388982241485	0	0	0	40.99007357129668	-9.97414519458294	-9.861165905434667	48.72655960199947	0.8504388982241485	0	0	0	-2.84493606791312	-0.5318389598504706	4.089235308004319	61.97732959310256	-18.45331187806068	-18.97293508324231	67.71994789241049	107.5380030710009	0	0	15.39782955605602	-42.66837049111504	-13.36735443772065	44.17195063253809	104.8848282321108	0	0
11.80000000000017	-2.0712266063789	-2.961118812720344	43.63298862558998	0	0.9399999999999999	0	41.02202892990238	-9.974657795913851	-9.863165617223641	48.76969344588717	0.8511917258190301	0	0	0	41.02202892990238	-9.974657795913851	-9.863165617223641	48.76969344588717	0.8511917258190301	0	0	0	-2.84010266806245	-0.5411875032335679	4.742752491695055	60.14215821454162	-24.6966284652596	-22.75559193418092	71.1676158863102	104.4031384499562	0	0	15.06736710284945	-43.00348095798017	-14.33446931351849	42.59533063976298	106.4965085997913	0	0
11.81666666666683	-2.103972659455982	-2.936963033373062	43.21806009465514	0	0.9399999999999999	0	41.02582200641776	-9.974741933754528	-9.863457102621652	48.77369529114996	0.8512615711950212	0	0	0	41.02582200641776	-9.974741933754528	-9.863457102621652	48.77369529114996	0.8512615711950212	0	0	0	-2.842468432619263	-0.5080122834648114	4.826435747873767	59.71386156981614	-26.37388441630336	-23.34049287022372	71.56621621110762	102.7830648727798	0	0	13.70015245141522	-43.56105990130841	-16.10761988306831	41.74143608440763	107.906827537192	0	0
11.8333333333335	-2.141404916321009	-2.904423386398329	42.41094426808557	0	0.9399999999999999	0	41.02836824748299	-9.974798401222003	-9.863652809579301	48.77637774666651	0.8513083888758233	0	0	0	41.02836824748299	-9.974798401222003	-9.863652809579301	48.77637774666651	0.8513083888758233	0	0	0	-2.832117517886388	-0.4950903656664498	5.259114914487571	59.14493375996615	-29.23327322643978	-26.48610117105802	75.28007269566848	103.3900355886718	0	0	12.24452981627326	-44.15628946158643	-17.27672449951418	40.92911477474048	108.3654240031194	0	0
11.85000000000017	-2.159593739644142	-2.873305646477124	42.00141885299432	0	0.9399999999999999	0	41.03052533563135	-9.974846152355864	-9.863818446789653	48.77865150206574	0.8513480733939248	0	0	0	41.03052533563135	-9.974846152355864	-9.863818446789653	48.77865150206574	0.8513480733939248	0	0	0	-2.822962729316846	-0.4651244037017332	5.351425894857002	59.04696749762715	-30.87624256533893	-26.86122039188221	75.2598365869642	101.7796757239828	0	0	10.78310267620004	-44.50368026520426	-17.63560438001202	41.79011335210904	107.3844915600026	0	0
11.86666666666684	-2.206917042225953	-2.825891083751153	41.20181241567447	0	0.9399999999999999	0	41.0326252656029	-9.974892542800008	-9.86397951283416	48.78086680618383	0.8513867377447184	0	0	0	41.0326252656029	-9.974892542800008	-9.86397951283416	48.78086680618383	0.8513867377447184	0	0	0	-2.812141851416033	-0.4309038447747008	5.70468711932716	58.95722329958761	-33.49439596303263	-29.91946630106893	78.2809278962784	101.782087358878	0	0	9.298170089229732	-44.97975308839101	-18.95717809353917	40.64417049147954	107.6423133722277	0	0
11.8833333333335	-2.193453433948592	-2.777636472002372	40.61691898480009	0	0.9399999999999999	0	41.03470412288872	-9.974938370680892	-9.864138773556107	48.7830619654862	0.8514250505021507	0	0	0	41.03470412288872	-9.974938370680892	-9.864138773556107	48.7830619654862	0.8514250505021507	0	0	0	-2.764508578440338	-0.4205130214728578	5.893756494194829	58.94333402823413	-35.2922184378181	-31.83400243774258	79.86031453154267	101.3050031257855	0	0	8.724940181601101	-45.24860230095767	-19.89387781573091	38.74139042525661	107.9816777770422	0	0
11.90000000000017	-2.163812306675148	-2.773254641280845	40.49236102454018	0	0.9399999999999999	0	41.03593209052433	-9.974964776875414	-9.864231328128337	48.78438813200736	0.8514481964743744	0	0	0	41.03593209052433	-9.974964776875414	-9.864231328128337	48.78438813200736	0.8514481964743744	0	0	0	-2.738154496700924	-0.435802939371812	5.914401010306234	59.2279444073143	-36.72730439861656	-32.50186875087418	79.25805396623122	100.1980759795764	0	0	7.862705629153112	-45.76570512406496	-20.79657697424253	37.2309928463979	107.8060831590019	0	0
11.91666666666684	-2.136925647270244	-2.705254374583117	39.9906480538413	0	0.9399999999999999	0	41.03870826670784	-9.975025975877083	-9.864444085293567	48.78731439671648	0.8514992694283336	0	0	0	41.03870826670784	-9.975025975877083	-9.864444085293567	48.78731439671648	0.8514992694283336	0	0	0	-2.666952575384292	-0.4196895385740084	6.109289612669164	59.52424625838587	-38.52079277439039	-34.38177632014943	80.7717211840465	100.0255221530291	0	0	6.631202285510478	-46.05356076653493	-21.74145039675155	36.79300744063309	107.4515997657423	0	0
11.93333333333351	-2.144413193384684	-2.754764819826394	39.63741841699021	0	0.9399999999999999	0	41.04254788552161	-9.975109987695109	-9.864737077209915	48.79137723704627	0.8515701793690712	0	0	0	41.04254788552161	-9.975109987695109	-9.864737077209915	48.79137723704627	0.8515701793690712	0	0	0	-2.7027709282749	-0.4567802821112285	6.174611478541114	59.51831609686712	-38.65963021030002	-35.63083243327181	83.28658104041141	100.9984227719321	0	0	5.6518899646561	-46.52109137368328	-22.31864383779724	35.36188698383507	106.6103429622202	0	0
11.95000000000017	-2.148305865480373	-2.747655622957925	39.28163917565119	0	0.9399999999999999	0	41.04590955464998	-9.975183747601266	-9.864994094401657	48.79492368024393	0.8516320764796054	0	0	0	41.04590955464998	-9.975183747601266	-9.864994094401657	48.79492368024393	0.8516320764796054	0	0	0	-2.691134739412842	-0.4778061422661347	6.522460695500463	59.93513623838837	-40.37613204623304	-37.68848698668899	85.47780615900321	101.2100064435087	0	0	4.776929214462792	-46.75247727143568	-22.39143291344533	34.03756572755661	105.4769789511224	0	0
11.96666666666684	-2.132164393600901	-2.777194248094123	38.96951481019946	0	0.9399999999999999	0	41.05003133539901	-9.975273641289624	-9.865308177245508	48.7992824961727	0.8517081521690508	0	0	0	41.05003133539901	-9.975273641289624	-9.865308177245508	48.7992824961727	0.8517081521690508	0	0	0	-2.696836539984016	-0.5148969397874936	6.553377563864456	59.91176293932519	-40.37301249822237	-39.02267591061246	88.63784726676272	102.6438958048349	0	0	3.71231293575392	-46.86656502057496	-23.34076017224323	32.76676003568591	104.542580473776	0	0
11.98333333333351	-2.10630204899649	-2.730469253295631	38.52859401816272	0	0.9399999999999999	0	41.05256430140886	-9.975328911975062	-9.86550127087491	48.8019589628566	0.8517548653250047	0	0	0	41.05256430140886	-9.975328911975062	-9.86550127087491	48.8019589628566	0.8517548653250047	0	0	0	-2.645369935345758	-0.5062522207043184	6.667091483356789	60.60630219996431	-41.59369872062209	-40.62711033806626	90.81837168700699	103.3678008235911	0	0	2.47531235827734	-46.68235103834641	-24.79732267278801	31.6347219513209	103.8455366100169	0	0
12.00000000000018	-2.077415736096277	-2.703360432648786	38.367851203782	0	0.9399999999999999	0	41.05598087359299	-9.97540318233494	-9.865761149393062	48.8055768082161	0.851818008638356	0	0	0	41.05598087359299	-9.97540318233494	-9.865761149393062	48.8055768082161	0.851818008638356	0	0	0	-2.607296927843346	-0.5011808061361382	6.635109764159663	61.46876005549075	-42.63571544837699	-40.81732033703801	89.79079580498343	102.6211390440791	0	0	1.366085593951996	-46.41695700834143	-25.91860752795363	31.44891317164662	103.5455052353472	0	0
